<?xml version="1.0" encoding="utf-8"?>
<!-- Generator: Adobe Illustrator 15.1.0, SVG Export Plug-In . SVG Version: 6.00 Build 0)  -->
<svg version="1.1" id="Layer_1" xmlns="http://www.w3.org/2000/svg" xmlns:xlink="http://www.w3.org/1999/xlink" x="0px" y="0px"
	 width="221.5px" height="50.75px" viewBox="0 0 221.5 50.75" enable-background="new 0 0 221.5 50.75" xml:space="preserve">
<path fill="#FFFFFF" d="M50.239,24.347c-1.137-1.6-2.874-2.609-5.026-2.92c-3.588-0.517-7.955,0.92-11.682,3.849
	c-6.161,4.838-8.779,12.14-5.959,16.623c1.078,1.714,2.796,2.821,4.969,3.201c0.57,0.1,1.161,0.147,1.767,0.147
	c3.242,0,6.915-1.402,10.149-3.93C50.778,36.374,53.373,28.761,50.239,24.347L50.239,24.347z M43.029,39.472
	c-3.318,2.599-7.066,3.839-10.028,3.322c-1.556-0.271-2.755-1.012-3.466-2.142c-2.154-3.431,0.281-9.503,5.427-13.542
	c2.815-2.209,5.978-3.451,8.698-3.451c0.401,0,0.792,0.028,1.172,0.083c1.547,0.222,2.763,0.902,3.516,1.96
	C50.469,28.69,48.839,34.937,43.029,39.472"/>
<path fill="#FFFFFF" d="M31.439,22.17c0.479,0.105,0.984,0.156,1.502,0.156c2.083,0,4.422-0.821,6.516-2.326
	c4.403-3.163,6.256-8.088,4.222-11.213c-0.747-1.149-1.918-1.899-3.387-2.172C37.908,6.169,34.972,7,32.434,8.834
	c-4.22,3.038-6.125,7.858-4.337,10.97C28.8,21.032,29.955,21.849,31.439,22.17 M33.788,10.724c1.69-1.219,3.539-1.894,5.122-1.894
	c0.313,0,0.615,0.027,0.904,0.081c0.87,0.162,1.535,0.559,1.919,1.153c1.165,1.787-0.014,5.446-3.628,8.043
	c-2.081,1.494-4.367,2.157-6.117,1.778c-0.869-0.188-1.517-0.618-1.877-1.246C29.08,16.843,30.312,13.235,33.788,10.724"/>
<path fill="#FFFFFF" d="M20.143,28.41c-2.631-0.461-5.822,0.532-8.539,2.659c-4.571,3.567-6.586,9.199-4.585,12.82
	c0.817,1.479,2.159,2.447,3.881,2.801c0.485,0.1,0.992,0.148,1.511,0.148c2.32,0,4.912-0.977,7.196-2.752
	c4.698-3.656,6.695-9.538,4.451-13.113C23.193,29.594,21.839,28.708,20.143,28.41 M18.184,42.239
	c-2.255,1.76-4.777,2.566-6.75,2.162c-1.088-0.223-1.91-0.791-2.382-1.643c-1.256-2.273,0.042-6.773,3.976-9.849
	c1.868-1.464,3.945-2.275,5.734-2.275c0.316,0,0.623,0.025,0.919,0.077c1.077,0.188,1.91,0.709,2.41,1.505
	C23.513,34.483,22.283,39.053,18.184,42.239"/>
<path fill="#FFFFFF" d="M22.005,14.21c-2.003-0.371-4.467,0.32-6.59,1.853c-3.095,2.233-5.288,6.303-3.602,9.246
	c0.607,1.056,1.598,1.76,2.867,2.032c0.406,0.089,0.832,0.134,1.271,0.134c1.749,0,3.704-0.686,5.451-1.941
	c3.236-2.325,5.432-6.497,3.506-9.454C24.263,15.091,23.259,14.445,22.005,14.21 M20.051,23.636
	c-1.649,1.188-3.452,1.72-4.821,1.421c-0.655-0.142-1.141-0.459-1.403-0.916c-0.796-1.388,0.198-4.205,2.944-6.187
	c1.345-0.97,2.808-1.506,4.054-1.506c0.245,0,0.48,0.02,0.705,0.063c0.656,0.121,1.151,0.416,1.431,0.849l0.001,0.001
	C23.842,18.71,22.864,21.621,20.051,23.636"/>
<path fill="#E13629" d="M138.563,36.938c-3.881,0-6.358-3.088-6.358-6.92v-0.094c0-3.692,2.524-6.824,6.077-6.824
	c2.525,0,4.114,1.074,5.703,2.759l4.349-4.677c-2.338-2.616-5.283-4.207-10.004-4.207c-7.668,0-13.137,5.893-13.137,13.043v0.095
	c0,7.151,5.516,12.948,13.042,12.948c5.003,0,7.808-1.916,10.238-4.582l-4.16-4.206C142.584,35.91,140.947,36.938,138.563,36.938"/>
<rect x="115.039" y="9.544" fill="#FFFFFF" width="7.104" height="32.957"/>
<path fill="#E13629" d="M162.947,16.976c-7.623,0-13.282,5.844-13.282,13.043v0.094c0,7.199,5.614,12.949,13.192,12.949
	c7.623,0,13.283-5.844,13.283-13.043v-0.093C176.141,22.726,170.523,16.976,162.947,16.976 M169.293,30.112
	c0,3.693-2.373,6.826-6.346,6.826c-3.834,0-6.436-3.227-6.436-6.92v-0.093c0-3.694,2.373-6.825,6.346-6.825
	c3.834,0,6.436,3.227,6.436,6.918V30.112z"/>
<path fill="#FFFFFF" d="M108.649,22.427c-1.721-2.379-5.667-5.451-10.926-5.451c-7.65,0-13.329,5.844-13.329,13.043v0.094
	c0,7.199,5.633,12.949,13.238,12.949c2.401,0,4.607-0.576,6.505-1.589v1.029h6.824V29.85c0.026-0.938-0.041-2.38-0.576-4.034
	C110.385,25.815,109.805,24.026,108.649,22.427 M104.089,30.112c0,3.692-2.381,6.824-6.366,6.824c-3.847,0-6.459-3.225-6.459-6.918
	v-0.093c0-3.694,2.382-6.826,6.368-6.826c3.847,0,6.457,3.227,6.457,6.919V30.112z"/>
<path fill="#FFFFFF" d="M70.403,16.44c-2.367,0.125-4.466,1.391-5.788,2.91V9.545h-7.013v32.956h7.013V27.905
	c0-2.455,2.918-4.452,5.788-4.452s4.619,1.997,4.619,4.452v10.331v4.265h7.014v-4.265V27.688h-0.013
	C82.023,21.128,78.389,16.017,70.403,16.44"/>
<path fill="#E13629" d="M215.385,27.892v-0.202h-0.01c-0.11-6.222-4.924-11.248-10.834-11.248c-2.831,0-5.406,1.162-7.338,3.048
	c-1.935-1.886-4.508-3.048-7.34-3.048c-5.91,0-10.723,5.026-10.834,11.248h-0.011V42.5h7.013V27.904
	c0-2.454,1.719-4.451,3.832-4.451s3.834,1.997,3.834,4.451v10.332V42.5h7.012v-4.264V27.904c0-2.454,1.719-4.451,3.832-4.451
	c2.109,0,3.826,1.99,3.832,4.438V42.5h7.012V27.904h0.001C215.386,27.9,215.385,27.896,215.385,27.892"/>
</svg>
